<svg width="20" height="20" viewBox="0 0 20 20" fill="none" xmlns="http://www.w3.org/2000/svg">
<path d="M10 1.25C7.67936 1.25 5.45376 2.17187 3.81282 3.81282C2.17187 5.45376 1.25 7.67936 1.25 10C1.25 12.3206 2.17187 14.5462 3.81282 16.1872C5.45376 17.8281 7.67936 18.75 10 18.75C12.3206 18.75 14.5462 17.8281 16.1872 16.1872C17.8281 14.5462 18.75 12.3206 18.75 10C18.75 7.67936 17.8281 5.45376 16.1872 3.81282C14.5462 2.17187 12.3206 1.25 10 1.25V1.25ZM10 17.5V2.5C10.9849 2.5 11.9602 2.69399 12.8701 3.0709C13.7801 3.44781 14.6069 4.00026 15.3033 4.6967C15.9997 5.39314 16.5522 6.21993 16.9291 7.12987C17.306 8.03982 17.5 9.01509 17.5 10C17.5 10.9849 17.306 11.9602 16.9291 12.8701C16.5522 13.7801 15.9997 14.6069 15.3033 15.3033C14.6069 15.9997 13.7801 16.5522 12.8701 16.9291C11.9602 17.306 10.9849 17.5 10 17.5V17.5Z" fill="#F2F2F2"/>
</svg>
