<svg width="122" height="84" viewBox="0 0 122 84" fill="none" xmlns="http://www.w3.org/2000/svg">
<path d="M49.6533 50.0378C50.4671 50.0699 51.2602 49.7831 51.858 49.2405C52.4558 48.6978 52.8094 47.9437 52.841 47.1442C52.9067 45.48 52.3225 44.7081 51.7564 43.4779C50.5426 40.8417 51.6745 38.5782 54.497 36.3393C54.9917 39.3784 56.7186 42.3453 59.0973 44.3717C61.4761 46.3981 62.613 48.7379 62.5178 51.1497C62.474 52.2583 62.2084 53.3472 61.7362 54.3543C61.2639 55.3614 60.5943 56.267 59.7655 57.0194C58.9367 57.7717 57.9649 58.3561 56.9057 58.7392C55.8465 59.1222 54.7206 59.2964 53.5922 59.2519C52.4639 59.2073 51.3552 58.9449 50.3295 58.4795C49.3038 58.0141 48.3811 57.3549 47.6142 56.5395C46.8473 55.7241 46.2512 54.7686 45.8598 53.7273C45.4685 52.6861 45.2896 51.5797 45.3334 50.4711C45.3883 49.0807 45.9741 47.7257 46.7037 46.9018C46.6721 47.7014 46.9651 48.481 47.5183 49.0691C48.0714 49.6572 48.8394 50.0057 49.6533 50.0378V50.0378Z" fill="white" stroke="white" stroke-width="2" stroke-linecap="round" stroke-linejoin="round"/>
<path d="M17.576 66.496C16.2107 66.496 14.8027 66.0907 13.352 65.28C11.944 64.4693 10.5573 63.168 9.192 61.376C8.12533 59.9253 7.336 58.24 6.824 56.32C6.312 54.4427 6.056 52.5867 6.056 50.752C6.056 49.8133 6.12 48.896 6.248 48C6.376 47.0187 6.632 45.9093 7.016 44.672C7.44267 43.4347 7.86933 42.4107 8.296 41.6C8.424 41.344 8.616 41.0667 8.872 40.768C9.128 40.4693 9.32 40.32 9.448 40.32C9.49067 40.32 9.512 40.3413 9.512 40.384C9.512 40.4267 9.32 40.8747 8.936 41.728C7.86933 43.8613 7.336 46.2293 7.336 48.832C7.336 51.1787 7.69867 53.4827 8.424 55.744C9.192 57.9627 10.1733 59.8827 11.368 61.504C12.52 63.04 13.6507 64.1493 14.76 64.832C15.8693 65.5147 16.9573 65.856 18.024 65.856C19.56 65.856 20.9893 65.216 22.312 63.936C23.6347 62.6987 24.744 61.0987 25.64 59.136C26.28 57.8133 26.8133 56.0853 27.24 53.952C27.6667 51.776 28.008 49.344 28.264 46.656C28.52 43.968 28.6267 41.216 28.584 38.4V37.824C27.0907 38.464 25.64 39.232 24.232 40.128C22.8667 40.9813 21.544 41.9413 20.264 43.008C20.136 43.136 20.008 43.2 19.88 43.2C19.624 43.2 19.4107 43.0507 19.24 42.752C19.0693 42.4107 18.984 42.0907 18.984 41.792C18.984 41.28 19.1333 40.9387 19.432 40.768C20.8827 39.6587 22.3547 38.7413 23.848 38.016C25.384 37.2907 26.9627 36.7147 28.584 36.288C28.5413 33.5147 28.2853 30.8053 27.816 28.16C27.3893 25.5147 26.8133 23.0613 26.088 20.8C25.4053 18.5387 24.6373 16.6187 23.784 15.04L23.72 14.976C20.8613 15.0187 18.088 15.3173 15.4 15.872C12.7547 16.384 10.3867 17.1733 8.296 18.24C6.20533 19.264 4.54133 20.5867 3.304 22.208C2.10933 23.7867 1.512 25.6853 1.512 27.904C1.512 28.8427 1.59733 29.7173 1.768 30.528C1.98133 31.296 2.32267 31.9573 2.792 32.512C3.048 32.768 3.176 33.0027 3.176 33.216C3.176 33.472 3.048 33.6 2.792 33.6C2.536 33.6 2.28 33.4507 2.024 33.152C1.29867 32.2987 0.829333 31.36 0.616 30.336C0.36 29.312 0.232 28.288 0.232 27.264C0.232 25.1733 0.701333 23.3387 1.64 21.76C2.62133 20.1813 3.90133 18.8373 5.48 17.728C7.10133 16.576 8.872 15.6587 10.792 14.976C12.712 14.2507 14.6533 13.696 16.616 13.312C18.6213 12.928 20.456 12.7147 22.12 12.672C21.5227 11.9893 20.968 11.584 20.456 11.456C19.9867 11.2853 19.56 11.2213 19.176 11.264C18.8347 11.264 18.536 11.1787 18.28 11.008C18.1093 10.88 18.024 10.7307 18.024 10.56C18.024 10.1333 18.5787 9.92 19.688 9.92C20.4987 9.92 21.416 10.1333 22.44 10.56C23.5067 10.944 24.4667 11.648 25.32 12.672C27.2827 12.7147 29.48 12.9067 31.912 13.248C34.344 13.5893 36.7333 14.144 39.08 14.912C41.4267 15.68 43.4747 16.7253 45.224 18.048C46.9733 19.328 48.1253 20.9707 48.68 22.976C48.7227 23.104 48.744 23.296 48.744 23.552C48.744 23.936 48.6373 24.128 48.424 24.128C48.2107 24.128 47.9973 23.872 47.784 23.36C47.3147 21.6533 46.056 20.2027 44.008 19.008C41.96 17.8133 39.4213 16.8747 36.392 16.192C33.4053 15.4667 30.2267 15.0613 26.856 14.976C27.752 16.6827 28.456 18.688 28.968 20.992C29.5227 23.296 29.928 25.728 30.184 28.288C30.4827 30.8053 30.6747 33.3013 30.76 35.776C31.9973 35.52 33.256 35.3493 34.536 35.264C35.816 35.136 37.1173 35.072 38.44 35.072C38.7813 35.072 39.08 35.136 39.336 35.264C39.592 35.3493 39.72 35.4347 39.72 35.52C39.72 35.776 39.1867 35.904 38.12 35.904C35.6027 35.904 33.1493 36.2667 30.76 36.992C30.76 37.4187 30.76 37.8667 30.76 38.336C30.8027 38.8053 30.824 39.2533 30.824 39.68C30.824 41.6427 30.76 43.4347 30.632 45.056C30.5467 46.6347 30.4613 47.9147 30.376 48.896C30.0347 52.0533 29.2453 54.976 28.008 57.664C26.7707 60.352 25.2347 62.4853 23.4 64.064C21.608 65.6853 19.6667 66.496 17.576 66.496Z" fill="white"/>
<path d="M47.456 66.176C46.9013 66.176 46.368 65.9627 45.856 65.536C45.3867 65.1093 44.9813 64.6827 44.64 64.256C43.2747 62.6773 42.1227 60.5867 41.184 57.984C40.288 55.3813 39.6053 52.5227 39.136 49.408C38.6667 46.2507 38.432 43.0507 38.432 39.808C38.432 36.7787 38.624 33.8347 39.008 30.976C39.4347 28.1173 40.0747 25.5147 40.928 23.168C41.7813 20.8213 42.848 18.944 44.128 17.536C45.792 15.6587 47.392 14.72 48.928 14.72C49.8667 14.72 50.6133 15.1467 51.168 16C51.7653 16.8107 52.064 18.112 52.064 19.904C52.064 21.6107 51.7227 23.7867 51.04 26.432C50.4 29.0347 49.2907 32.1493 47.712 35.776C47.1573 36.9707 46.56 38.1653 45.92 39.36C45.3227 40.5547 44.6827 41.8133 44 43.136C43.744 43.648 43.5307 43.904 43.36 43.904C43.2747 43.904 43.232 43.8187 43.232 43.648C43.232 43.3067 43.3813 42.8587 43.68 42.304C47.5627 35.008 49.504 27.7547 49.504 20.544C49.504 17.6853 48.9067 16.256 47.712 16.256C46.8587 16.256 45.856 17.088 44.704 18.752C43.1253 21.0987 42.0373 23.8933 41.44 27.136C40.8427 30.336 40.544 33.5787 40.544 36.864C40.544 39.3387 40.6507 41.7493 40.864 44.096C41.0773 46.4 41.3333 48.4907 41.632 50.368C41.76 51.1787 41.952 52.2667 42.208 53.632C42.464 54.9973 42.8053 56.4267 43.232 57.92C43.6587 59.456 44.128 60.8427 44.64 62.08C45.1947 63.36 45.792 64.2773 46.432 64.832C46.6027 64.96 46.7733 65.088 46.944 65.216C47.1573 65.3867 47.392 65.4933 47.648 65.536C48.032 65.536 48.224 65.6427 48.224 65.856C48.224 66.0693 47.968 66.176 47.456 66.176Z" fill="white"/>
<path d="M81.368 70.2C80.4293 70.2 79.704 69.7947 79.192 68.984C78.7227 68.1733 78.488 67.2347 78.488 66.168C78.488 64.888 78.7227 63.416 79.192 61.752C79.6613 60.1307 80.2587 58.4667 80.984 56.76C81.7093 55.0107 82.456 53.3253 83.224 51.704C84.0347 50.0827 84.7387 48.632 85.336 47.352C85.976 46.072 86.4027 45.0907 86.616 44.408C86.872 43.64 87 43.064 87 42.68C87 42.2533 86.8507 42.04 86.552 42.04C86.2107 42.04 85.6987 42.3173 85.016 42.872C84.376 43.384 83.7573 43.96 83.16 44.6C82.5627 45.24 82.136 45.7093 81.88 46.008C80.472 47.544 79.2347 49.2507 78.168 51.128C77.1013 53.0053 76.4187 54.6053 76.12 55.928C76.0773 56.1413 76.0133 56.5253 75.928 57.08C75.8427 57.592 75.6507 57.848 75.352 57.848C75.0533 57.848 74.8187 57.6987 74.648 57.4C74.52 57.1013 74.4347 56.7813 74.392 56.44C74.3493 56.2267 74.3067 55.8213 74.264 55.224C74.264 54.584 74.264 54.1147 74.264 53.816C74.264 51.9813 74.456 50.1467 74.84 48.312C75.224 46.4347 75.6507 44.6427 76.12 42.936C76.632 41.1867 77.08 39.5867 77.464 38.136C77.848 36.6853 78.04 35.448 78.04 34.424C78.04 33.7413 77.912 33.1867 77.656 32.76C77.4427 32.2907 77.1653 32.056 76.824 32.056C76.312 32.056 75.7147 32.4827 75.032 33.336C74.392 34.1893 73.7307 35.3413 73.048 36.792C72.3653 38.2427 71.7253 39.8427 71.128 41.592C70.5733 43.3413 70.104 45.112 69.72 46.904C69.3787 48.696 69.208 50.3813 69.208 51.96C69.208 52.856 69.272 53.7733 69.4 54.712C69.5707 55.6507 69.656 56.4827 69.656 57.208C69.656 57.7627 69.5707 58.168 69.4 58.424C69.272 58.68 68.9307 58.808 68.376 58.808C67.352 58.808 66.712 57.8053 66.456 55.8C66.1573 54.0507 65.8373 52.0667 65.496 49.848C65.1973 47.6293 64.8133 45.6667 64.344 43.96C64.216 43.4907 64.0667 43 63.896 42.488C63.7253 41.976 63.4053 41.5067 62.936 41.08C62.8933 40.9947 62.7867 40.9093 62.616 40.824C62.4453 40.7387 62.36 40.6533 62.36 40.568C62.36 40.3973 62.5947 40.312 63.064 40.312C63.704 40.312 64.3013 40.6747 64.856 41.4C65.4107 42.0827 65.9013 42.936 66.328 43.96C66.7547 44.984 67.1173 46.008 67.416 47.032C67.7573 48.0133 68.0133 48.8027 68.184 49.4C68.568 47.0533 68.9947 44.92 69.464 43C69.9333 41.0373 70.5307 39.1387 71.256 37.304C71.768 36.0667 72.3653 34.872 73.048 33.72C73.7307 32.568 74.4987 31.6293 75.352 30.904C76.2053 30.136 77.1013 29.752 78.04 29.752C78.6373 29.752 79.3413 30.072 80.152 30.712C81.0053 31.352 81.432 32.376 81.432 33.784C81.432 34.424 81.2613 35.192 80.92 36.088C80.6213 36.9413 80.28 37.9013 79.896 38.968C79.3413 40.4613 78.744 42.1467 78.104 44.024C77.464 45.8587 76.9093 47.544 76.44 49.08C75.9707 50.616 75.6933 51.6827 75.608 52.28C75.5227 52.9627 75.4587 53.5387 75.416 54.008C75.416 54.4347 75.416 54.84 75.416 55.224C75.672 54.1147 76.2267 52.8347 77.08 51.384C77.976 49.8907 78.7867 48.632 79.512 47.608C80.3227 46.456 81.176 45.368 82.072 44.344C83.0107 43.2773 83.9707 42.424 84.952 41.784C85.976 41.1013 86.9787 40.76 87.96 40.76C88.4293 40.76 88.8347 40.888 89.176 41.144C89.5173 41.4 89.688 41.8907 89.688 42.616C89.688 43.5973 89.368 44.728 88.728 46.008C88.1307 47.2453 87.384 48.5253 86.488 49.848C85.6347 51.128 84.8453 52.3867 84.12 53.624C83.1813 55.2453 82.3067 56.9947 81.496 58.872C80.728 60.7067 80.344 62.6053 80.344 64.568C80.344 66.1893 80.536 67.3627 80.92 68.088C81.3467 68.8133 81.7947 69.176 82.264 69.176C82.5627 69.176 82.8613 69.0693 83.16 68.856C83.5013 68.6427 83.7787 68.4507 83.992 68.28C84.0773 68.1947 84.2053 68.0667 84.376 67.896C84.5467 67.768 84.696 67.704 84.824 67.704C84.9947 67.704 85.016 67.8747 84.888 68.216C84.8453 68.3867 84.7173 68.5573 84.504 68.728C84.2907 68.9413 84.1413 69.0907 84.056 69.176C83.2453 69.8587 82.3493 70.2 81.368 70.2Z" fill="white"/>
<path d="M94.568 62.632C94.312 62.632 94.0987 62.4187 93.928 61.992C93.5013 61.096 93.1813 59.752 92.968 57.96C92.7547 56.2107 92.648 54.2267 92.648 52.008C92.648 49.4053 92.776 46.696 93.032 43.88C92.4773 44.5627 91.944 45.2453 91.432 45.928C90.9627 46.568 90.5787 47.0373 90.28 47.336C90.1093 47.5067 89.9387 47.592 89.768 47.592C89.4267 47.592 89.256 47.3573 89.256 46.888C89.256 46.4613 89.4907 45.9493 89.96 45.352C90.472 44.7547 91.048 44.1573 91.688 43.56C92.328 42.92 92.84 42.4293 93.224 42.088C93.5227 38.9307 93.928 35.88 94.44 32.936C94.952 29.992 95.528 27.432 96.168 25.256C96.8507 23.0373 97.576 21.5013 98.344 20.648C98.728 20.264 99.176 20.072 99.688 20.072C100.157 20.072 100.541 20.2213 100.84 20.52C101.139 20.776 101.288 21.1387 101.288 21.608C101.288 22.1627 101.032 22.952 100.52 23.976C100.051 24.9573 99.496 26.088 98.856 27.368C98.216 28.6053 97.5973 30.4187 97 32.808C96.4027 35.1973 95.8693 37.7787 95.4 40.552C96.68 39.8693 98.0453 39.528 99.496 39.528C101.203 39.528 102.44 40.0613 103.208 41.128C104.019 42.152 104.424 43.4107 104.424 44.904C104.424 46.2693 104.147 47.6987 103.592 49.192C103.08 50.6853 102.44 52.072 101.672 53.352C100.904 54.632 100.157 55.656 99.432 56.424C99.0053 56.8507 98.5573 57.2987 98.088 57.768C97.6187 58.2373 97.0213 58.472 96.296 58.472C95.7413 58.472 95.336 58.2587 95.08 57.832C94.824 57.4053 94.696 56.936 94.696 56.424C94.696 56.04 94.8453 55.4427 95.144 54.632C95.4427 53.8213 95.8053 52.9467 96.232 52.008C96.7013 51.0693 97.1707 50.1733 97.64 49.32C98.1093 48.4667 98.5147 47.784 98.856 47.272C99.0267 46.9733 99.2613 46.6107 99.56 46.184C99.9013 45.7147 100.157 45.48 100.328 45.48C100.413 45.48 100.456 45.544 100.456 45.672C100.456 45.8427 100.349 46.1413 100.136 46.568C99.9227 46.952 99.7093 47.3147 99.496 47.656C99.0693 48.4667 98.5787 49.448 98.024 50.6C97.4693 51.752 96.9787 52.904 96.552 54.056C96.1253 55.1653 95.912 56.0827 95.912 56.808C95.912 57.1493 96.0187 57.32 96.232 57.32C96.4453 57.32 96.7013 57.1707 97 56.872C97.3413 56.5307 97.6827 56.168 98.024 55.784C98.3653 55.3573 98.6 55.0587 98.728 54.888C99.7093 53.5227 100.499 51.944 101.096 50.152C101.693 48.36 101.992 46.696 101.992 45.16C101.992 43.8373 101.757 42.7493 101.288 41.896C100.819 41 100.029 40.552 98.92 40.552C97.896 40.552 96.6373 41.0213 95.144 41.96C94.8027 44.2213 94.5253 46.4827 94.312 48.744C94.0987 50.9627 93.992 53.0107 93.992 54.888C93.992 56.0827 94.0347 57.1493 94.12 58.088C94.248 59.0267 94.4187 59.7947 94.632 60.392C94.76 60.6907 94.8453 60.9467 94.888 61.16C94.9307 61.416 94.952 61.6507 94.952 61.864C94.952 62.376 94.824 62.632 94.568 62.632Z" fill="white"/>
<path d="M112.36 56.832C110.824 56.832 109.48 55.936 108.328 54.144C107.219 52.3093 106.664 49.4293 106.664 45.504C106.664 42.944 106.984 40.896 107.624 39.36C108.264 37.7813 109.053 36.6293 109.992 35.904C110.931 35.1787 111.827 34.816 112.68 34.816C113.533 34.816 114.259 35.1147 114.856 35.712C115.453 36.2667 115.752 37.0773 115.752 38.144C115.752 39.168 115.453 40.256 114.856 41.408C114.259 42.5173 113.533 43.5413 112.68 44.48C111.869 45.376 111.059 45.9733 110.248 46.272C110.077 46.3573 109.864 46.4 109.608 46.4C109.437 46.4 109.352 46.336 109.352 46.208C109.352 45.8667 109.693 45.4827 110.376 45.056C111.229 44.4587 112.04 43.5627 112.808 42.368C113.576 41.1307 113.96 40.0427 113.96 39.104C113.96 38.5493 113.832 38.1227 113.576 37.824C113.32 37.4827 113.021 37.312 112.68 37.312C112.04 37.312 111.336 37.824 110.568 38.848C109.843 39.8293 109.309 41.536 108.968 43.968C108.883 44.6507 108.797 45.312 108.712 45.952C108.669 46.5493 108.648 47.1467 108.648 47.744C108.648 50.1333 109.011 52.0107 109.736 53.376C110.461 54.6987 111.421 55.36 112.616 55.36C113.64 55.36 114.792 54.7627 116.072 53.568C117.352 52.3307 118.611 50.4107 119.848 47.808C120.147 47.1253 120.488 46.784 120.872 46.784C121.128 46.784 121.256 46.9547 121.256 47.296C121.256 47.5947 121.171 47.9147 121 48.256C119.891 50.9867 118.547 53.0987 116.968 54.592C115.389 56.0853 113.853 56.832 112.36 56.832ZM110.504 30.976C110.333 30.976 110.248 30.9333 110.248 30.848C110.248 30.8053 110.568 30.5067 111.208 29.952C111.848 29.3973 112.595 28.7787 113.448 28.096C114.301 27.4133 115.091 26.816 115.816 26.304C116.584 25.7493 117.075 25.472 117.288 25.472C117.501 25.472 117.779 25.6 118.12 25.856C118.504 26.112 118.696 26.368 118.696 26.624C118.696 26.752 118.333 27.0507 117.608 27.52C116.883 27.9467 116.008 28.4373 114.984 28.992C114.003 29.5467 113.085 30.016 112.232 30.4C111.379 30.784 110.803 30.976 110.504 30.976Z" fill="white"/>
</svg>
