<svg width="39" height="39" viewBox="0 0 39 39" fill="none" xmlns="http://www.w3.org/2000/svg">
<path d="M31.3371 29.6004C31.566 29.8315 31.6944 30.1435 31.6944 30.4688C31.6944 30.794 31.566 31.1061 31.3371 31.3371C31.1042 31.5624 30.7928 31.6883 30.4688 31.6883C30.1447 31.6883 29.8334 31.5624 29.6004 31.3371L19.5 21.2215L9.39963 31.3371C9.16668 31.5624 8.85531 31.6883 8.53127 31.6883C8.20723 31.6883 7.89586 31.5624 7.66291 31.3371C7.43405 31.1061 7.30566 30.794 7.30566 30.4688C7.30566 30.1435 7.43405 29.8315 7.66291 29.6004L17.7785 19.5L7.66291 9.39962C7.46856 9.16283 7.36925 8.8622 7.38427 8.55623C7.3993 8.25026 7.5276 7.96082 7.74421 7.74421C7.96083 7.52759 8.25027 7.3993 8.55624 7.38427C8.86221 7.36924 9.16283 7.46856 9.39963 7.66291L19.5 17.7785L29.6004 7.66291C29.8372 7.46856 30.1378 7.36924 30.4438 7.38427C30.7498 7.3993 31.0392 7.52759 31.2558 7.74421C31.4724 7.96082 31.6007 8.25026 31.6158 8.55623C31.6308 8.8622 31.5315 9.16283 31.3371 9.39962L21.2215 19.5L31.3371 29.6004Z" fill="black"/>
</svg>
